<?xml version="1.0" encoding="UTF-8"?>
<!DOCTYPE svg PUBLIC "-//W3C//DTD SVG 1.1//EN" "http://www.w3.org/Graphics/SVG/1.1/DTD/svg11.dtd">
<svg xmlns="http://www.w3.org/2000/svg" style="background: transparent; background-color: transparent; color-scheme: light;" xmlns:xlink="http://www.w3.org/1999/xlink" version="1.1" width="1082px" height="722px" viewBox="0 0 1082 722"><defs/><g><g data-cell-id="0"><g data-cell-id="1"><g data-cell-id="NjeQV9hmSFBA9JD2l0-S-1"/><g data-cell-id="NjeQV9hmSFBA9JD2l0-S-2"/><g data-cell-id="NjeQV9hmSFBA9JD2l0-S-3"/><g data-cell-id="NjeQV9hmSFBA9JD2l0-S-4"/><g data-cell-id="NjeQV9hmSFBA9JD2l0-S-10"/><g data-cell-id="NjeQV9hmSFBA9JD2l0-S-12"/><g data-cell-id="2"/><g data-cell-id="Y39Le2Ay8ybuh8c-u--y-6"><g data-cell-id="Y39Le2Ay8ybuh8c-u--y-5"/><g data-cell-id="NjeQV9hmSFBA9JD2l0-S-18"/><g data-cell-id="NjeQV9hmSFBA9JD2l0-S-16"/><g data-cell-id="NjeQV9hmSFBA9JD2l0-S-17"/><g data-cell-id="Y39Le2Ay8ybuh8c-u--y-2"/><g data-cell-id="Y39Le2Ay8ybuh8c-u--y-3"/><g data-cell-id="Y39Le2Ay8ybuh8c-u--y-4"/></g><g data-cell-id="4_KN2zwDm9mQIUxYk-yz-2"/><g data-cell-id="4_KN2zwDm9mQIUxYk-yz-3"><g data-cell-id="4_KN2zwDm9mQIUxYk-yz-4"/><g data-cell-id="4_KN2zwDm9mQIUxYk-yz-5"/><g data-cell-id="4_KN2zwDm9mQIUxYk-yz-6"/><g data-cell-id="4_KN2zwDm9mQIUxYk-yz-7"/><g data-cell-id="4_KN2zwDm9mQIUxYk-yz-8"/><g data-cell-id="4_KN2zwDm9mQIUxYk-yz-9"/><g data-cell-id="4_KN2zwDm9mQIUxYk-yz-10"/></g><g data-cell-id="4_KN2zwDm9mQIUxYk-yz-11"><g transform="translate(0.5,0.5)"><rect x="0" y="0" width="1080" height="720" rx="14.4" ry="14.4" fill="#fdfbf8" stroke="#000000" pointer-events="all" style="fill: rgb(253, 251, 248); stroke: rgb(0, 0, 0);"/></g></g><g data-cell-id="4_KN2zwDm9mQIUxYk-yz-12"><g transform="translate(0.5,0.5)"><path d="M 550 440 L 1010 440" fill="none" stroke="#000000" stroke-miterlimit="10" pointer-events="stroke" style="stroke: rgb(0, 0, 0);"/></g></g><g data-cell-id="4_KN2zwDm9mQIUxYk-yz-13"><g transform="translate(0.5,0.5)"><path d="M 550 520 L 1010 520" fill="none" stroke="#000000" stroke-miterlimit="10" pointer-events="stroke" style="stroke: rgb(0, 0, 0);"/></g></g><g data-cell-id="4_KN2zwDm9mQIUxYk-yz-14"><g transform="translate(0.5,0.5)"><path d="M 550 600 L 1010 600" fill="none" stroke="#000000" stroke-miterlimit="10" pointer-events="stroke" style="stroke: rgb(0, 0, 0);"/></g></g><g data-cell-id="4_KN2zwDm9mQIUxYk-yz-123"><g><rect x="60" y="60" width="60" height="60" fill="#ffffff" stroke="#cccccc" stroke-width="3" pointer-events="all" style="fill: rgb(255, 255, 255); stroke: rgb(204, 204, 204);"/></g></g><g data-cell-id="4_KN2zwDm9mQIUxYk-yz-124"><g><rect x="140" y="60" width="60" height="60" fill="#ffffff" stroke="#cccccc" stroke-width="3" pointer-events="all" style="fill: rgb(255, 255, 255); stroke: rgb(204, 204, 204);"/></g></g><g data-cell-id="4_KN2zwDm9mQIUxYk-yz-125"><g><rect x="220" y="60" width="60" height="60" fill="#ffffff" stroke="#cccccc" stroke-width="3" pointer-events="all" style="fill: rgb(255, 255, 255); stroke: rgb(204, 204, 204);"/></g></g><g data-cell-id="4_KN2zwDm9mQIUxYk-yz-126"><g><rect x="300" y="60" width="60" height="60" fill="#ffffff" stroke="#cccccc" stroke-width="3" pointer-events="all" style="fill: rgb(255, 255, 255); stroke: rgb(204, 204, 204);"/></g></g><g data-cell-id="4_KN2zwDm9mQIUxYk-yz-127"><g><rect x="380" y="60" width="60" height="60" fill="#ffffff" stroke="#cccccc" stroke-width="3" pointer-events="all" style="fill: rgb(255, 255, 255); stroke: rgb(204, 204, 204);"/></g></g><g data-cell-id="4_KN2zwDm9mQIUxYk-yz-128"><g><rect x="460" y="60" width="60" height="60" fill="#ffffff" stroke="#cccccc" stroke-width="3" pointer-events="all" style="fill: rgb(255, 255, 255); stroke: rgb(204, 204, 204);"/></g></g><g data-cell-id="4_KN2zwDm9mQIUxYk-yz-158"><g data-cell-id="4_KN2zwDm9mQIUxYk-yz-149"/><g data-cell-id="4_KN2zwDm9mQIUxYk-yz-150"/><g data-cell-id="4_KN2zwDm9mQIUxYk-yz-151"/></g><g data-cell-id="4_KN2zwDm9mQIUxYk-yz-159"><g data-cell-id="4_KN2zwDm9mQIUxYk-yz-160"/><g data-cell-id="4_KN2zwDm9mQIUxYk-yz-161"/><g data-cell-id="4_KN2zwDm9mQIUxYk-yz-162"/></g><g data-cell-id="4_KN2zwDm9mQIUxYk-yz-167"><g data-cell-id="4_KN2zwDm9mQIUxYk-yz-168"/><g data-cell-id="4_KN2zwDm9mQIUxYk-yz-169"/><g data-cell-id="4_KN2zwDm9mQIUxYk-yz-170"/></g><g data-cell-id="4_KN2zwDm9mQIUxYk-yz-171"><g data-cell-id="4_KN2zwDm9mQIUxYk-yz-172"/><g data-cell-id="4_KN2zwDm9mQIUxYk-yz-173"/><g data-cell-id="4_KN2zwDm9mQIUxYk-yz-174"/><g data-cell-id="4_KN2zwDm9mQIUxYk-yz-184"/><g data-cell-id="4_KN2zwDm9mQIUxYk-yz-182"/><g data-cell-id="4_KN2zwDm9mQIUxYk-yz-183"/></g><g data-cell-id="4_KN2zwDm9mQIUxYk-yz-175"><g data-cell-id="4_KN2zwDm9mQIUxYk-yz-176"/><g data-cell-id="4_KN2zwDm9mQIUxYk-yz-177"/><g data-cell-id="4_KN2zwDm9mQIUxYk-yz-178"/></g><g data-cell-id="4_KN2zwDm9mQIUxYk-yz-179"/><g data-cell-id="4_KN2zwDm9mQIUxYk-yz-180"/><g data-cell-id="4_KN2zwDm9mQIUxYk-yz-209"><g transform="translate(0.5,0.5)"/><g data-cell-id="4_KN2zwDm9mQIUxYk-yz-186"><g transform="translate(0.5,0.5)"/><g data-cell-id="4_KN2zwDm9mQIUxYk-yz-187"><g transform="translate(0.5,0.5)"><path d="M 83.61 608.89 Q 109.58 624.89 135.56 608.89 Q 161.53 592.89 187.5 608.89 L 187.5 611.11 Q 161.53 595.11 135.56 611.11 Q 109.58 627.11 83.61 611.11 L 83.61 608.89 Z" fill="#cfcfcf" stroke="none" pointer-events="all" style="fill: rgb(207, 207, 207);"/></g></g><g data-cell-id="4_KN2zwDm9mQIUxYk-yz-188"><g transform="translate(0.5,0.5)"><path d="M 187.5 608.89 Q 213.47 624.89 239.44 608.89 Q 265.42 592.89 291.39 608.89 L 291.39 611.11 Q 265.42 595.11 239.44 611.11 Q 213.47 627.11 187.5 611.11 L 187.5 608.89 Z" fill="#cfcfcf" stroke="none" pointer-events="all" style="fill: rgb(207, 207, 207);"/></g></g><g data-cell-id="4_KN2zwDm9mQIUxYk-yz-189"><g transform="translate(0.5,0.5)"><path d="M 291.39 608.89 Q 317.36 624.89 343.33 608.89 Q 369.31 592.89 395.28 608.89 L 395.28 611.11 Q 369.31 595.11 343.33 611.11 Q 317.36 627.11 291.39 611.11 L 291.39 608.89 Z" fill="#cfcfcf" stroke="none" pointer-events="all" style="fill: rgb(207, 207, 207);"/></g></g></g><g data-cell-id="4_KN2zwDm9mQIUxYk-yz-190"><g transform="translate(0.5,0.5)"/><g data-cell-id="4_KN2zwDm9mQIUxYk-yz-191"><g transform="translate(0.5,0.5)"><path d="M 60 588.89 Q 85.97 604.89 111.94 588.89 Q 137.92 572.89 163.89 588.89 L 163.89 591.11 Q 137.92 575.11 111.94 591.11 Q 85.97 607.11 60 591.11 L 60 588.89 Z" fill="#cfcfcf" stroke="none" pointer-events="all" style="fill: rgb(207, 207, 207);"/></g></g><g data-cell-id="4_KN2zwDm9mQIUxYk-yz-192"><g transform="translate(0.5,0.5)"><path d="M 163.89 588.89 Q 189.86 604.89 215.83 588.89 Q 241.81 572.89 267.78 588.89 L 267.78 591.11 Q 241.81 575.11 215.83 591.11 Q 189.86 607.11 163.89 591.11 L 163.89 588.89 Z" fill="#cfcfcf" stroke="none" pointer-events="all" style="fill: rgb(207, 207, 207);"/></g></g><g data-cell-id="4_KN2zwDm9mQIUxYk-yz-193"><g transform="translate(0.5,0.5)"><path d="M 267.78 588.89 Q 293.75 604.89 319.72 588.89 Q 345.69 572.89 371.67 588.89 L 371.67 591.11 Q 345.69 575.11 319.72 591.11 Q 293.75 607.11 267.78 591.11 L 267.78 588.89 Z" fill="#cfcfcf" stroke="none" pointer-events="all" style="fill: rgb(207, 207, 207);"/></g></g></g><g data-cell-id="4_KN2zwDm9mQIUxYk-yz-194"><g transform="translate(0.5,0.5)"/><g data-cell-id="4_KN2zwDm9mQIUxYk-yz-195"><g transform="translate(0.5,0.5)"><path d="M 88.33 568.89 Q 114.31 584.89 140.28 568.89 Q 166.25 552.89 192.22 568.89 L 192.22 571.11 Q 166.25 555.11 140.28 571.11 Q 114.31 587.11 88.33 571.11 L 88.33 568.89 Z" fill="#cfcfcf" stroke="none" pointer-events="all" style="fill: rgb(207, 207, 207);"/></g></g><g data-cell-id="4_KN2zwDm9mQIUxYk-yz-196"><g transform="translate(0.5,0.5)"><path d="M 192.22 568.89 Q 218.19 584.89 244.17 568.89 Q 270.14 552.89 296.11 568.89 L 296.11 571.11 Q 270.14 555.11 244.17 571.11 Q 218.19 587.11 192.22 571.11 L 192.22 568.89 Z" fill="#cfcfcf" stroke="none" pointer-events="all" style="fill: rgb(207, 207, 207);"/></g></g><g data-cell-id="4_KN2zwDm9mQIUxYk-yz-197"><g transform="translate(0.5,0.5)"><path d="M 296.11 568.89 Q 322.08 584.89 348.06 568.89 Q 374.03 552.89 400 568.89 L 400 571.11 Q 374.03 555.11 348.06 571.11 Q 322.08 587.11 296.11 571.11 L 296.11 568.89 Z" fill="#cfcfcf" stroke="none" pointer-events="all" style="fill: rgb(207, 207, 207);"/></g></g></g><g data-cell-id="4_KN2zwDm9mQIUxYk-yz-198"><g transform="translate(0.5,0.5)"/><g data-cell-id="4_KN2zwDm9mQIUxYk-yz-199"><g transform="translate(0.5,0.5)"><path d="M 60 548.89 Q 85.97 564.89 111.94 548.89 Q 137.92 532.89 163.89 548.89 L 163.89 551.11 Q 137.92 535.11 111.94 551.11 Q 85.97 567.11 60 551.11 L 60 548.89 Z" fill="#cfcfcf" stroke="none" pointer-events="all" style="fill: rgb(207, 207, 207);"/></g></g><g data-cell-id="4_KN2zwDm9mQIUxYk-yz-200"><g transform="translate(0.5,0.5)"><path d="M 163.89 548.89 Q 189.86 564.89 215.83 548.89 Q 241.81 532.89 267.78 548.89 L 267.78 551.11 Q 241.81 535.11 215.83 551.11 Q 189.86 567.11 163.89 551.11 L 163.89 548.89 Z" fill="#cfcfcf" stroke="none" pointer-events="all" style="fill: rgb(207, 207, 207);"/></g></g><g data-cell-id="4_KN2zwDm9mQIUxYk-yz-201"><g transform="translate(0.5,0.5)"><path d="M 267.78 548.89 Q 293.75 564.89 319.72 548.89 Q 345.69 532.89 371.67 548.89 L 371.67 551.11 Q 345.69 535.11 319.72 551.11 Q 293.75 567.11 267.78 551.11 L 267.78 548.89 Z" fill="#cfcfcf" stroke="none" pointer-events="all" style="fill: rgb(207, 207, 207);"/></g></g><g data-cell-id="4_KN2zwDm9mQIUxYk-yz-202"><g transform="translate(0.5,0.5)"><path d="M 220.56 570 L 272.5 515 L 324.44 570 Z" fill="none" stroke="none" transform="rotate(358,272.5,542.5)" pointer-events="all"/><path d="M 220.56 570 C 236.76 550.51 262.87 524.22 272.5 515 C 289.37 533.59 304.12 548.2 324.45 570 C 299.19 574 261.05 572.5 220.56 570" fill="#ffffff" stroke="none" transform="rotate(358,272.5,542.5)" pointer-events="all" style="fill: rgb(255, 255, 255);"/><path d="M 220.56 570 C 230.83 558.19 246.69 543.02 272.5 515 M 220.56 570 C 232.5 558.22 243.13 545.73 272.5 515 M 272.5 515 C 291.77 527.99 301.62 549.68 324.45 570 M 272.5 515 C 284.26 527.49 293.25 538.35 324.45 570 M 324.45 570 C 291.48 567.48 250.14 565.16 220.56 570 M 324.45 570 C 289.34 570.58 255.22 571.15 220.56 570" fill="none" stroke="#cfcfcf" stroke-linejoin="round" stroke-linecap="round" stroke-miterlimit="10" transform="rotate(358,272.5,542.5)" pointer-events="all" style="stroke: rgb(207, 207, 207);"/></g></g><g data-cell-id="4_KN2zwDm9mQIUxYk-yz-203"><g transform="translate(0.5,0.5)"><path d="M 225.28 585 L 201.67 525 L 296.11 585 Z" fill="none" stroke="none" transform="rotate(358,248.89,555)" pointer-events="all"/><path d="M 225.28 585 C 223.6 568.78 213.94 549.29 201.67 525 C 219.42 542.32 242.15 554.5 296.11 585 C 268.69 582.74 248.27 586.19 225.28 585" fill="#ffffff" stroke="none" transform="rotate(358,248.89,555)" pointer-events="all" style="fill: rgb(255, 255, 255);"/><path d="M 225.28 585 C 222.44 569.99 209.35 554 201.67 525 M 225.28 585 C 217.75 568.5 213.73 549.06 201.67 525 M 201.67 525 C 235.23 547.24 266.63 569.84 296.11 585 M 201.67 525 C 237.37 547.28 273.43 569.25 296.11 585 M 296.11 585 C 276.1 585.63 252.91 586.3 225.28 585 M 296.11 585 C 271.33 585.97 243.1 584.32 225.28 585" fill="none" stroke="#cfcfcf" stroke-linejoin="round" stroke-linecap="round" stroke-miterlimit="10" transform="rotate(358,248.89,555)" pointer-events="all" style="stroke: rgb(207, 207, 207);"/></g></g><g data-cell-id="4_KN2zwDm9mQIUxYk-yz-204"><g transform="translate(0.5,0.5)"><path d="M 272.5 584 L 248.89 524 L 343.33 584 Z" fill="none" stroke="none" transform="translate(296.11,0)scale(-1,1)translate(-296.11,0)rotate(-358,296.11,554)" pointer-events="all"/><path d="M 272.5 584 C 265.82 570.06 259.03 559.2 248.89 524 C 282.65 549.54 320.62 569.92 343.33 584 C 329.47 586.96 308.89 584.16 272.5 584" fill="#ffffff" stroke="none" transform="translate(296.11,0)scale(-1,1)translate(-296.11,0)rotate(-358,296.11,554)" pointer-events="all" style="fill: rgb(255, 255, 255);"/><path d="M 272.5 584 C 267.18 566.54 259.73 550.94 248.89 524 M 272.5 584 C 265.5 563.89 254.94 542.57 248.89 524 M 248.89 524 C 284.14 541.97 316.58 564.02 343.33 584 M 248.89 524 C 280.93 547.09 316.44 567.14 343.33 584 M 343.33 584 C 324.83 587.15 308.32 582.81 272.5 584 M 343.33 584 C 328.3 585.53 313.39 585.66 272.5 584" fill="none" stroke="#cfcfcf" stroke-linejoin="round" stroke-linecap="round" stroke-miterlimit="10" transform="translate(296.11,0)scale(-1,1)translate(-296.11,0)rotate(-358,296.11,554)" pointer-events="all" style="stroke: rgb(207, 207, 207);"/></g></g></g><g data-cell-id="4_KN2zwDm9mQIUxYk-yz-205"><g transform="translate(0.5,0.5)"/><g data-cell-id="4_KN2zwDm9mQIUxYk-yz-206"><g transform="translate(0.5,0.5)"><path d="M 69.44 628.89 Q 95.42 644.89 121.39 628.89 Q 147.36 612.89 173.33 628.89 L 173.33 631.11 Q 147.36 615.11 121.39 631.11 Q 95.42 647.11 69.44 631.11 L 69.44 628.89 Z" fill="#cfcfcf" stroke="none" pointer-events="all" style="fill: rgb(207, 207, 207);"/></g></g><g data-cell-id="4_KN2zwDm9mQIUxYk-yz-207"><g transform="translate(0.5,0.5)"><path d="M 173.33 628.89 Q 199.31 644.89 225.28 628.89 Q 251.25 612.89 277.22 628.89 L 277.22 631.11 Q 251.25 615.11 225.28 631.11 Q 199.31 647.11 173.33 631.11 L 173.33 628.89 Z" fill="#cfcfcf" stroke="none" pointer-events="all" style="fill: rgb(207, 207, 207);"/></g></g><g data-cell-id="4_KN2zwDm9mQIUxYk-yz-208"><g transform="translate(0.5,0.5)"><path d="M 277.22 628.89 Q 303.19 644.89 329.17 628.89 Q 355.14 612.89 381.11 628.89 L 381.11 631.11 Q 355.14 615.11 329.17 631.11 Q 303.19 647.11 277.22 631.11 L 277.22 628.89 Z" fill="#cfcfcf" stroke="none" pointer-events="all" style="fill: rgb(207, 207, 207);"/></g></g></g></g><g data-cell-id="4_KN2zwDm9mQIUxYk-yz-213"/><g data-cell-id="4_KN2zwDm9mQIUxYk-yz-321"><g transform="translate(0.5,0.5)"/><g data-cell-id="4_KN2zwDm9mQIUxYk-yz-15"><g transform="translate(0.5,0.5)"><rect x="875" y="55" width="150" height="200" fill="#ffffff" stroke="none" pointer-events="all" style="fill: rgb(255, 255, 255);"/></g></g><g data-cell-id="4_KN2zwDm9mQIUxYk-yz-106"><g transform="translate(0.5,0.5)"><ellipse cx="925" cy="110" rx="30.000000000000004" ry="30.000000000000004" fill="none" stroke="none" transform="rotate(-85,925,110)" pointer-events="all"/><path d="M 913.16 80.06 C 918.84 77.68 929.72 78.98 935.81 81.37 C 941.89 83.76 946.6 88.67 949.66 94.4 C 952.72 100.12 954.74 109.14 954.16 115.72 C 953.58 122.29 950.89 130.03 946.17 133.83 C 941.45 137.63 932.29 138.56 925.85 138.51 C 919.41 138.46 912.41 137.44 907.54 133.54 C 902.67 129.65 898.14 121.52 896.64 115.13 C 895.14 108.75 894.31 100.96 898.53 95.23 C 902.76 89.49 916.57 82.9 921.98 80.75 C 927.39 78.6 930.57 81.6 930.98 82.3 M 934.59 82.13 C 940.31 83.39 946.96 88.08 949.99 93.59 C 953.02 99.1 953.91 108.6 952.76 115.21 C 951.61 121.81 947.64 128.99 943.1 133.21 C 938.55 137.42 932.41 141.01 925.49 140.49 C 918.58 139.97 906.31 134.14 901.59 130.1 C 896.87 126.05 897.54 122.55 897.18 116.22 C 896.81 109.88 896.26 97.83 899.4 92.07 C 902.54 86.3 909.97 83.15 916.03 81.61 C 922.09 80.08 932.45 82.57 935.79 82.86 C 939.13 83.15 936.34 82.84 936.06 83.35" fill="#ffffff" stroke="none" transform="rotate(-85,925,110)" pointer-events="all" style="fill: rgb(255, 255, 255);"/><path d="M 929.33 80.05 C 935.15 80.08 941.6 83.62 945.85 88.13 C 950.11 92.64 954.46 100.48 954.86 107.09 C 955.25 113.7 951.93 122.37 948.22 127.79 C 944.5 133.21 939.1 138.31 932.59 139.59 C 926.08 140.86 914.76 138.17 909.16 135.44 C 903.55 132.71 901.23 128.79 898.98 123.19 C 896.73 117.6 894.24 108.53 895.64 101.86 C 897.03 95.19 898.24 84.76 907.36 83.16 C 916.48 81.56 942.69 86.55 950.35 92.25 C 958 97.95 954.05 117.29 953.29 117.36 M 933.25 84.4 C 938.94 85.96 949.42 90.97 953.29 96.34 C 957.15 101.71 957.58 110.84 956.45 116.63 C 955.32 122.42 951.78 127.39 946.51 131.1 C 941.23 134.82 931.35 138.43 924.78 138.91 C 918.22 139.39 911.77 138.11 907.13 133.99 C 902.5 129.86 898.09 120.97 896.96 114.17 C 895.83 107.37 897.63 98.82 900.36 93.19 C 903.09 87.56 907.4 81.92 913.34 80.4 C 919.29 78.88 931.92 83.28 936.04 84.07 C 940.15 84.87 938.3 84.91 938.04 85.18" fill="none" stroke="#000000" stroke-linejoin="round" stroke-linecap="round" stroke-miterlimit="10" transform="rotate(-85,925,110)" pointer-events="all" style="stroke: rgb(0, 0, 0);"/></g></g><g data-cell-id="4_KN2zwDm9mQIUxYk-yz-118"><g transform="translate(0.5,0.5)"><path d="M 878 226 L 940 147" fill="none" stroke="none" pointer-events="stroke"/><path d="M 878 226 C 891.99 202.48 909.2 189.45 940 147 M 878 226 C 896.76 205.95 914.74 182.97 940 147" fill="none" stroke="#000000" stroke-linejoin="round" stroke-linecap="round" stroke-miterlimit="10" pointer-events="stroke" style="stroke: rgb(0, 0, 0);"/></g></g><g data-cell-id="4_KN2zwDm9mQIUxYk-yz-119"><g transform="translate(0.5,0.5)"><path d="M 1003 227 L 940 148" fill="none" stroke="none" pointer-events="stroke"/><path d="M 1003 227 C 992.18 209.51 976.77 188.88 940 148 M 1003 227 C 979.04 196.53 955.29 170.31 940 148" fill="none" stroke="#000000" stroke-linejoin="round" stroke-linecap="round" stroke-miterlimit="10" pointer-events="stroke" style="stroke: rgb(0, 0, 0);"/></g></g><g data-cell-id="4_KN2zwDm9mQIUxYk-yz-120"><g transform="translate(0.5,0.5)"><path d="M 948 158 L 986 110" fill="none" stroke="none" pointer-events="stroke"/><path d="M 948 158 C 957.19 142.79 962.45 138.43 986 110 M 948 158 C 961.99 141.83 975.6 125.23 986 110" fill="none" stroke="#000000" stroke-linejoin="round" stroke-linecap="round" stroke-miterlimit="10" pointer-events="stroke" style="stroke: rgb(0, 0, 0);"/></g></g><g data-cell-id="4_KN2zwDm9mQIUxYk-yz-121"><g transform="translate(0.5,0.5)"><path d="M 1025 158 L 986 110" fill="none" stroke="none" pointer-events="stroke"/><path d="M 1025 158 C 1015.01 148.26 1007.27 136.29 986 110 M 1025 158 C 1015.55 147.5 1006.6 135.48 986 110" fill="none" stroke="#000000" stroke-linejoin="round" stroke-linecap="round" stroke-miterlimit="10" pointer-events="stroke" style="stroke: rgb(0, 0, 0);"/></g></g><g data-cell-id="4_KN2zwDm9mQIUxYk-yz-217"><g transform="translate(0.5,0.5)"/><g data-cell-id="4_KN2zwDm9mQIUxYk-yz-68"><g transform="translate(0.5,0.5)"><path d="M 905 55.05 C 904.97 52.29 907.19 50.03 909.95 50 C 912.71 49.97 914.97 52.19 915 54.95" fill="none" stroke="#000000" stroke-miterlimit="10" transform="rotate(-180,910,55)" pointer-events="all" style="stroke: rgb(0, 0, 0);"/></g></g><g data-cell-id="4_KN2zwDm9mQIUxYk-yz-70"><g transform="translate(0.5,0.5)"><path d="M 885 55.05 C 884.97 52.29 887.19 50.03 889.95 50 C 892.71 49.97 894.97 52.19 895 54.95" fill="none" stroke="#000000" stroke-miterlimit="10" transform="rotate(-180,890,55)" pointer-events="all" style="stroke: rgb(0, 0, 0);"/></g></g><g data-cell-id="4_KN2zwDm9mQIUxYk-yz-215"><g transform="translate(0.5,0.5)"><path d="M 895 54.92 L 905 54.92" fill="none" stroke="#000000" stroke-miterlimit="10" pointer-events="stroke" style="stroke: rgb(0, 0, 0);"/></g></g><g data-cell-id="4_KN2zwDm9mQIUxYk-yz-216"><g transform="translate(0.5,0.5)"><path d="M 915 54.92 L 925 54.92" fill="none" stroke="#000000" stroke-miterlimit="10" pointer-events="stroke" style="stroke: rgb(0, 0, 0);"/></g></g></g><g data-cell-id="4_KN2zwDm9mQIUxYk-yz-218"><g transform="translate(0.5,0.5)"/><g data-cell-id="4_KN2zwDm9mQIUxYk-yz-219"><g transform="translate(0.5,0.5)"><path d="M 945 55.05 C 944.97 52.29 947.19 50.03 949.95 50 C 952.71 49.97 954.97 52.19 955 54.95" fill="none" stroke="#000000" stroke-miterlimit="10" transform="rotate(-180,950,55)" pointer-events="all" style="stroke: rgb(0, 0, 0);"/></g></g><g data-cell-id="4_KN2zwDm9mQIUxYk-yz-220"><g transform="translate(0.5,0.5)"><path d="M 925 55.05 C 924.97 52.29 927.19 50.03 929.95 50 C 932.71 49.97 934.97 52.19 935 54.95" fill="none" stroke="#000000" stroke-miterlimit="10" transform="rotate(-180,930,55)" pointer-events="all" style="stroke: rgb(0, 0, 0);"/></g></g><g data-cell-id="4_KN2zwDm9mQIUxYk-yz-221"><g transform="translate(0.5,0.5)"><path d="M 935 54.92 L 945 54.92" fill="none" stroke="#000000" stroke-miterlimit="10" pointer-events="stroke" style="stroke: rgb(0, 0, 0);"/></g></g><g data-cell-id="4_KN2zwDm9mQIUxYk-yz-222"><g transform="translate(0.5,0.5)"><path d="M 955 54.92 L 965 54.92" fill="none" stroke="#000000" stroke-miterlimit="10" pointer-events="stroke" style="stroke: rgb(0, 0, 0);"/></g></g></g><g data-cell-id="4_KN2zwDm9mQIUxYk-yz-223"><g transform="translate(0.5,0.5)"/><g data-cell-id="4_KN2zwDm9mQIUxYk-yz-224"><g transform="translate(0.5,0.5)"><path d="M 985 55.05 C 984.97 52.29 987.19 50.03 989.95 50 C 992.71 49.97 994.97 52.19 995 54.95" fill="none" stroke="#000000" stroke-miterlimit="10" transform="rotate(-180,990,55)" pointer-events="all" style="stroke: rgb(0, 0, 0);"/></g></g><g data-cell-id="4_KN2zwDm9mQIUxYk-yz-225"><g transform="translate(0.5,0.5)"><path d="M 965 55.05 C 964.97 52.29 967.19 50.03 969.95 50 C 972.71 49.97 974.97 52.19 975 54.95" fill="none" stroke="#000000" stroke-miterlimit="10" transform="rotate(-180,970,55)" pointer-events="all" style="stroke: rgb(0, 0, 0);"/></g></g><g data-cell-id="4_KN2zwDm9mQIUxYk-yz-226"><g transform="translate(0.5,0.5)"><path d="M 975 54.92 L 985 54.92" fill="none" stroke="#000000" stroke-miterlimit="10" pointer-events="stroke" style="stroke: rgb(0, 0, 0);"/></g></g><g data-cell-id="4_KN2zwDm9mQIUxYk-yz-227"><g transform="translate(0.5,0.5)"><path d="M 995 54.92 L 1005 54.92" fill="none" stroke="#000000" stroke-miterlimit="10" pointer-events="stroke" style="stroke: rgb(0, 0, 0);"/></g></g></g><g data-cell-id="4_KN2zwDm9mQIUxYk-yz-228"><g transform="translate(0.5,0.5)"/><g data-cell-id="4_KN2zwDm9mQIUxYk-yz-230"><g transform="translate(0.5,0.5)"><path d="M 1005 55.05 C 1004.97 52.29 1007.19 50.03 1009.95 50 C 1012.71 49.97 1014.97 52.19 1015 54.95" fill="none" stroke="#000000" stroke-miterlimit="10" transform="rotate(-180,1010,55)" pointer-events="all" style="stroke: rgb(0, 0, 0);"/></g></g><g data-cell-id="4_KN2zwDm9mQIUxYk-yz-231"><g transform="translate(0.5,0.5)"><path d="M 1015 54.92 L 1025 54.92" fill="none" stroke="#000000" stroke-miterlimit="10" pointer-events="stroke" style="stroke: rgb(0, 0, 0);"/></g></g></g><g data-cell-id="4_KN2zwDm9mQIUxYk-yz-233"><g transform="translate(0.5,0.5)"/><g data-cell-id="4_KN2zwDm9mQIUxYk-yz-234"><g transform="translate(0.5,0.5)"><path d="M 1020 90.05 C 1019.97 87.29 1022.19 85.03 1024.95 85 C 1027.71 84.97 1029.97 87.19 1030 89.95" fill="none" stroke="#000000" stroke-miterlimit="10" transform="rotate(-90,1025,90)" pointer-events="all" style="stroke: rgb(0, 0, 0);"/></g></g><g data-cell-id="4_KN2zwDm9mQIUxYk-yz-235"><g transform="translate(0.5,0.5)"><path d="M 1020 70.05 C 1019.97 67.29 1022.19 65.03 1024.95 65 C 1027.71 64.97 1029.97 67.19 1030 69.95" fill="none" stroke="#000000" stroke-miterlimit="10" transform="rotate(-90,1025,70)" pointer-events="all" style="stroke: rgb(0, 0, 0);"/></g></g><g data-cell-id="4_KN2zwDm9mQIUxYk-yz-236"><g transform="translate(0.5,0.5)"><path d="M 1025 75 L 1025 85" fill="none" stroke="#000000" stroke-miterlimit="10" pointer-events="stroke" style="stroke: rgb(0, 0, 0);"/></g></g><g data-cell-id="4_KN2zwDm9mQIUxYk-yz-237"><g transform="translate(0.5,0.5)"><path d="M 1025 95 L 1025 105" fill="none" stroke="#000000" stroke-miterlimit="10" pointer-events="stroke" style="stroke: rgb(0, 0, 0);"/></g></g><g data-cell-id="4_KN2zwDm9mQIUxYk-yz-272"><g transform="translate(0.5,0.5)"><path d="M 1024.9 55 L 1024.9 65" fill="none" stroke="#000000" stroke-miterlimit="10" pointer-events="stroke" style="stroke: rgb(0, 0, 0);"/></g></g></g><g data-cell-id="4_KN2zwDm9mQIUxYk-yz-245"><g transform="translate(0.5,0.5)"/><g data-cell-id="4_KN2zwDm9mQIUxYk-yz-246"><g transform="translate(0.5,0.5)"><path d="M 1020 130.05 C 1019.97 127.29 1022.19 125.03 1024.95 125 C 1027.71 124.97 1029.97 127.19 1030 129.95" fill="none" stroke="#000000" stroke-miterlimit="10" transform="rotate(-90,1025,130)" pointer-events="all" style="stroke: rgb(0, 0, 0);"/></g></g><g data-cell-id="4_KN2zwDm9mQIUxYk-yz-247"><g transform="translate(0.5,0.5)"><path d="M 1020 110.05 C 1019.97 107.29 1022.19 105.03 1024.95 105 C 1027.71 104.97 1029.97 107.19 1030 109.95" fill="none" stroke="#000000" stroke-miterlimit="10" transform="rotate(-90,1025,110)" pointer-events="all" style="stroke: rgb(0, 0, 0);"/></g></g><g data-cell-id="4_KN2zwDm9mQIUxYk-yz-248"><g transform="translate(0.5,0.5)"><path d="M 1025 115 L 1025 125" fill="none" stroke="#000000" stroke-miterlimit="10" pointer-events="stroke" style="stroke: rgb(0, 0, 0);"/></g></g><g data-cell-id="4_KN2zwDm9mQIUxYk-yz-249"><g transform="translate(0.5,0.5)"><path d="M 1025 135 L 1025 145" fill="none" stroke="#000000" stroke-miterlimit="10" pointer-events="stroke" style="stroke: rgb(0, 0, 0);"/></g></g></g><g data-cell-id="4_KN2zwDm9mQIUxYk-yz-250"><g transform="translate(0.5,0.5)"/><g data-cell-id="4_KN2zwDm9mQIUxYk-yz-251"><g transform="translate(0.5,0.5)"><path d="M 1020 170.05 C 1019.97 167.29 1022.19 165.03 1024.95 165 C 1027.71 164.97 1029.97 167.19 1030 169.95" fill="none" stroke="#000000" stroke-miterlimit="10" transform="rotate(-90,1025,170)" pointer-events="all" style="stroke: rgb(0, 0, 0);"/></g></g><g data-cell-id="4_KN2zwDm9mQIUxYk-yz-252"><g transform="translate(0.5,0.5)"><path d="M 1020 150.05 C 1019.97 147.29 1022.19 145.03 1024.95 145 C 1027.71 144.97 1029.97 147.19 1030 149.95" fill="none" stroke="#000000" stroke-miterlimit="10" transform="rotate(-90,1025,150)" pointer-events="all" style="stroke: rgb(0, 0, 0);"/></g></g><g data-cell-id="4_KN2zwDm9mQIUxYk-yz-253"><g transform="translate(0.5,0.5)"><path d="M 1025 155 L 1025 165" fill="none" stroke="#000000" stroke-miterlimit="10" pointer-events="stroke" style="stroke: rgb(0, 0, 0);"/></g></g><g data-cell-id="4_KN2zwDm9mQIUxYk-yz-254"><g transform="translate(0.5,0.5)"><path d="M 1025 175 L 1025 185" fill="none" stroke="#000000" stroke-miterlimit="10" pointer-events="stroke" style="stroke: rgb(0, 0, 0);"/></g></g></g><g data-cell-id="4_KN2zwDm9mQIUxYk-yz-255"><g transform="translate(0.5,0.5)"/><g data-cell-id="4_KN2zwDm9mQIUxYk-yz-256"><g transform="translate(0.5,0.5)"><path d="M 1020 210.05 C 1019.97 207.29 1022.19 205.03 1024.95 205 C 1027.71 204.97 1029.97 207.19 1030 209.95" fill="none" stroke="#000000" stroke-miterlimit="10" transform="rotate(-90,1025,210)" pointer-events="all" style="stroke: rgb(0, 0, 0);"/></g></g><g data-cell-id="4_KN2zwDm9mQIUxYk-yz-257"><g transform="translate(0.5,0.5)"><path d="M 1020 190.05 C 1019.97 187.29 1022.19 185.03 1024.95 185 C 1027.71 184.97 1029.97 187.19 1030 189.95" fill="none" stroke="#000000" stroke-miterlimit="10" transform="rotate(-90,1025,190)" pointer-events="all" style="stroke: rgb(0, 0, 0);"/></g></g><g data-cell-id="4_KN2zwDm9mQIUxYk-yz-258"><g transform="translate(0.5,0.5)"><path d="M 1025 195 L 1025 205" fill="none" stroke="#000000" stroke-miterlimit="10" pointer-events="stroke" style="stroke: rgb(0, 0, 0);"/></g></g><g data-cell-id="4_KN2zwDm9mQIUxYk-yz-259"><g transform="translate(0.5,0.5)"><path d="M 1025 215 L 1025 225" fill="none" stroke="#000000" stroke-miterlimit="10" pointer-events="stroke" style="stroke: rgb(0, 0, 0);"/></g></g></g><g data-cell-id="4_KN2zwDm9mQIUxYk-yz-261"><g transform="translate(0.5,0.5)"><path d="M 1020 250.05 C 1019.97 247.29 1022.19 245.03 1024.95 245 C 1027.71 244.97 1029.97 247.19 1030 249.95" fill="none" stroke="#000000" stroke-miterlimit="10" transform="rotate(-90,1025,250)" pointer-events="all" style="stroke: rgb(0, 0, 0);"/></g></g><g data-cell-id="4_KN2zwDm9mQIUxYk-yz-262"><g transform="translate(0.5,0.5)"><path d="M 1020 230.05 C 1019.97 227.29 1022.19 225.03 1024.95 225 C 1027.71 224.97 1029.97 227.19 1030 229.95" fill="none" stroke="#000000" stroke-miterlimit="10" transform="rotate(-90,1025,230)" pointer-events="all" style="stroke: rgb(0, 0, 0);"/></g></g><g data-cell-id="4_KN2zwDm9mQIUxYk-yz-263"><g transform="translate(0.5,0.5)"><path d="M 1025 235 L 1025 245" fill="none" stroke="#000000" stroke-miterlimit="10" pointer-events="stroke" style="stroke: rgb(0, 0, 0);"/></g></g><g data-cell-id="4_KN2zwDm9mQIUxYk-yz-273"><g transform="translate(0.5,0.5)"/><g data-cell-id="4_KN2zwDm9mQIUxYk-yz-274"><g transform="translate(0.5,0.5)"><path d="M 870 70.05 C 869.97 67.29 872.19 65.03 874.95 65 C 877.71 64.97 879.97 67.19 880 69.95" fill="none" stroke="#000000" stroke-miterlimit="10" transform="rotate(-270,875,70)" pointer-events="all" style="stroke: rgb(0, 0, 0);"/></g></g><g data-cell-id="4_KN2zwDm9mQIUxYk-yz-275"><g transform="translate(0.5,0.5)"><path d="M 870 90.05 C 869.97 87.29 872.19 85.03 874.95 85 C 877.71 84.97 879.97 87.19 880 89.95" fill="none" stroke="#000000" stroke-miterlimit="10" transform="rotate(-270,875,90)" pointer-events="all" style="stroke: rgb(0, 0, 0);"/></g></g><g data-cell-id="4_KN2zwDm9mQIUxYk-yz-276"><g transform="translate(0.5,0.5)"><path d="M 875 85 L 875 75" fill="none" stroke="#000000" stroke-miterlimit="10" pointer-events="stroke" style="stroke: rgb(0, 0, 0);"/></g></g><g data-cell-id="4_KN2zwDm9mQIUxYk-yz-277"><g transform="translate(0.5,0.5)"><path d="M 875 65 L 875 55" fill="none" stroke="#000000" stroke-miterlimit="10" pointer-events="stroke" style="stroke: rgb(0, 0, 0);"/></g></g></g><g data-cell-id="4_KN2zwDm9mQIUxYk-yz-278"><g transform="translate(0.5,0.5)"/><g data-cell-id="4_KN2zwDm9mQIUxYk-yz-279"><g transform="translate(0.5,0.5)"><path d="M 870 110.05 C 869.97 107.29 872.19 105.03 874.95 105 C 877.71 104.97 879.97 107.19 880 109.95" fill="none" stroke="#000000" stroke-miterlimit="10" transform="rotate(-270,875,110)" pointer-events="all" style="stroke: rgb(0, 0, 0);"/></g></g><g data-cell-id="4_KN2zwDm9mQIUxYk-yz-280"><g transform="translate(0.5,0.5)"><path d="M 870 130.05 C 869.97 127.29 872.19 125.03 874.95 125 C 877.71 124.97 879.97 127.19 880 129.95" fill="none" stroke="#000000" stroke-miterlimit="10" transform="rotate(-270,875,130)" pointer-events="all" style="stroke: rgb(0, 0, 0);"/></g></g><g data-cell-id="4_KN2zwDm9mQIUxYk-yz-281"><g transform="translate(0.5,0.5)"><path d="M 875 125 L 875 115" fill="none" stroke="#000000" stroke-miterlimit="10" pointer-events="stroke" style="stroke: rgb(0, 0, 0);"/></g></g><g data-cell-id="4_KN2zwDm9mQIUxYk-yz-282"><g transform="translate(0.5,0.5)"><path d="M 875 105 L 875 95" fill="none" stroke="#000000" stroke-miterlimit="10" pointer-events="stroke" style="stroke: rgb(0, 0, 0);"/></g></g></g><g data-cell-id="4_KN2zwDm9mQIUxYk-yz-283"><g transform="translate(0.5,0.5)"/><g data-cell-id="4_KN2zwDm9mQIUxYk-yz-284"><g transform="translate(0.5,0.5)"><path d="M 870 150.05 C 869.97 147.29 872.19 145.03 874.95 145 C 877.71 144.97 879.97 147.19 880 149.95" fill="none" stroke="#000000" stroke-miterlimit="10" transform="rotate(-270,875,150)" pointer-events="all" style="stroke: rgb(0, 0, 0);"/></g></g><g data-cell-id="4_KN2zwDm9mQIUxYk-yz-285"><g transform="translate(0.5,0.5)"><path d="M 870 170.05 C 869.97 167.29 872.19 165.03 874.95 165 C 877.71 164.97 879.97 167.19 880 169.95" fill="none" stroke="#000000" stroke-miterlimit="10" transform="rotate(-270,875,170)" pointer-events="all" style="stroke: rgb(0, 0, 0);"/></g></g><g data-cell-id="4_KN2zwDm9mQIUxYk-yz-286"><g transform="translate(0.5,0.5)"><path d="M 875 165 L 875 155" fill="none" stroke="#000000" stroke-miterlimit="10" pointer-events="stroke" style="stroke: rgb(0, 0, 0);"/></g></g><g data-cell-id="4_KN2zwDm9mQIUxYk-yz-287"><g transform="translate(0.5,0.5)"><path d="M 875 145 L 875 135" fill="none" stroke="#000000" stroke-miterlimit="10" pointer-events="stroke" style="stroke: rgb(0, 0, 0);"/></g></g></g><g data-cell-id="4_KN2zwDm9mQIUxYk-yz-288"><g transform="translate(0.5,0.5)"/><g data-cell-id="4_KN2zwDm9mQIUxYk-yz-289"><g transform="translate(0.5,0.5)"><path d="M 870 190.05 C 869.97 187.29 872.19 185.03 874.95 185 C 877.71 184.97 879.97 187.19 880 189.95" fill="none" stroke="#000000" stroke-miterlimit="10" transform="rotate(-270,875,190)" pointer-events="all" style="stroke: rgb(0, 0, 0);"/></g></g><g data-cell-id="4_KN2zwDm9mQIUxYk-yz-290"><g transform="translate(0.5,0.5)"><path d="M 870 210.05 C 869.97 207.29 872.19 205.03 874.95 205 C 877.71 204.97 879.97 207.19 880 209.95" fill="none" stroke="#000000" stroke-miterlimit="10" transform="rotate(-270,875,210)" pointer-events="all" style="stroke: rgb(0, 0, 0);"/></g></g><g data-cell-id="4_KN2zwDm9mQIUxYk-yz-291"><g transform="translate(0.5,0.5)"><path d="M 875 205 L 875 195" fill="none" stroke="#000000" stroke-miterlimit="10" pointer-events="stroke" style="stroke: rgb(0, 0, 0);"/></g></g><g data-cell-id="4_KN2zwDm9mQIUxYk-yz-292"><g transform="translate(0.5,0.5)"><path d="M 875 185 L 875 175" fill="none" stroke="#000000" stroke-miterlimit="10" pointer-events="stroke" style="stroke: rgb(0, 0, 0);"/></g></g></g><g data-cell-id="4_KN2zwDm9mQIUxYk-yz-293"><g transform="translate(0.5,0.5)"/><g data-cell-id="4_KN2zwDm9mQIUxYk-yz-294"><g transform="translate(0.5,0.5)"><path d="M 870 230.05 C 869.97 227.29 872.19 225.03 874.95 225 C 877.71 224.97 879.97 227.19 880 229.95" fill="none" stroke="#000000" stroke-miterlimit="10" transform="rotate(-270,875,230)" pointer-events="all" style="stroke: rgb(0, 0, 0);"/></g></g><g data-cell-id="4_KN2zwDm9mQIUxYk-yz-295"><g transform="translate(0.5,0.5)"><path d="M 870 250.05 C 869.97 247.29 872.19 245.03 874.95 245 C 877.71 244.97 879.97 247.19 880 249.95" fill="none" stroke="#000000" stroke-miterlimit="10" transform="rotate(-270,875,250)" pointer-events="all" style="stroke: rgb(0, 0, 0);"/></g></g><g data-cell-id="4_KN2zwDm9mQIUxYk-yz-296"><g transform="translate(0.5,0.5)"><path d="M 875 245 L 875 235" fill="none" stroke="#000000" stroke-miterlimit="10" pointer-events="stroke" style="stroke: rgb(0, 0, 0);"/></g></g><g data-cell-id="4_KN2zwDm9mQIUxYk-yz-297"><g transform="translate(0.5,0.5)"><path d="M 875 225 L 875 215" fill="none" stroke="#000000" stroke-miterlimit="10" pointer-events="stroke" style="stroke: rgb(0, 0, 0);"/></g></g></g><g data-cell-id="4_KN2zwDm9mQIUxYk-yz-298"><g transform="translate(0.5,0.5)"/><g data-cell-id="4_KN2zwDm9mQIUxYk-yz-299"><g transform="translate(0.5,0.5)"><path d="M 885 255.05 C 884.97 252.29 887.19 250.03 889.95 250 C 892.71 249.97 894.97 252.19 895 254.95" fill="none" stroke="#000000" stroke-miterlimit="10" transform="rotate(-360,890,255)" pointer-events="all" style="stroke: rgb(0, 0, 0);"/></g></g><g data-cell-id="4_KN2zwDm9mQIUxYk-yz-300"><g transform="translate(0.5,0.5)"><path d="M 905 255.05 C 904.97 252.29 907.19 250.03 909.95 250 C 912.71 249.97 914.97 252.19 915 254.95" fill="none" stroke="#000000" stroke-miterlimit="10" transform="rotate(-360,910,255)" pointer-events="all" style="stroke: rgb(0, 0, 0);"/></g></g><g data-cell-id="4_KN2zwDm9mQIUxYk-yz-301"><g transform="translate(0.5,0.5)"><path d="M 905 255 L 895 255" fill="none" stroke="#000000" stroke-miterlimit="10" pointer-events="stroke" style="stroke: rgb(0, 0, 0);"/></g></g><g data-cell-id="4_KN2zwDm9mQIUxYk-yz-302"><g transform="translate(0.5,0.5)"><path d="M 885 255 L 875 255" fill="none" stroke="#000000" stroke-miterlimit="10" pointer-events="stroke" style="stroke: rgb(0, 0, 0);"/></g></g></g><g data-cell-id="4_KN2zwDm9mQIUxYk-yz-303"><g transform="translate(0.5,0.5)"/><g data-cell-id="4_KN2zwDm9mQIUxYk-yz-304"><g transform="translate(0.5,0.5)"><path d="M 925 255.05 C 924.97 252.29 927.19 250.03 929.95 250 C 932.71 249.97 934.97 252.19 935 254.95" fill="none" stroke="#000000" stroke-miterlimit="10" transform="rotate(-360,930,255)" pointer-events="all" style="stroke: rgb(0, 0, 0);"/></g></g><g data-cell-id="4_KN2zwDm9mQIUxYk-yz-305"><g transform="translate(0.5,0.5)"><path d="M 945 255.05 C 944.97 252.29 947.19 250.03 949.95 250 C 952.71 249.97 954.97 252.19 955 254.95" fill="none" stroke="#000000" stroke-miterlimit="10" transform="rotate(-360,950,255)" pointer-events="all" style="stroke: rgb(0, 0, 0);"/></g></g><g data-cell-id="4_KN2zwDm9mQIUxYk-yz-306"><g transform="translate(0.5,0.5)"><path d="M 945 255 L 935 255" fill="none" stroke="#000000" stroke-miterlimit="10" pointer-events="stroke" style="stroke: rgb(0, 0, 0);"/></g></g><g data-cell-id="4_KN2zwDm9mQIUxYk-yz-307"><g transform="translate(0.5,0.5)"><path d="M 925 255 L 915 255" fill="none" stroke="#000000" stroke-miterlimit="10" pointer-events="stroke" style="stroke: rgb(0, 0, 0);"/></g></g></g><g data-cell-id="4_KN2zwDm9mQIUxYk-yz-308"><g transform="translate(0.5,0.5)"/><g data-cell-id="4_KN2zwDm9mQIUxYk-yz-309"><g transform="translate(0.5,0.5)"><path d="M 965 255.05 C 964.97 252.29 967.19 250.03 969.95 250 C 972.71 249.97 974.97 252.19 975 254.95" fill="none" stroke="#000000" stroke-miterlimit="10" transform="rotate(-360,970,255)" pointer-events="all" style="stroke: rgb(0, 0, 0);"/></g></g><g data-cell-id="4_KN2zwDm9mQIUxYk-yz-310"><g transform="translate(0.5,0.5)"><path d="M 985 255.05 C 984.97 252.29 987.19 250.03 989.95 250 C 992.71 249.97 994.97 252.19 995 254.95" fill="none" stroke="#000000" stroke-miterlimit="10" transform="rotate(-360,990,255)" pointer-events="all" style="stroke: rgb(0, 0, 0);"/></g></g><g data-cell-id="4_KN2zwDm9mQIUxYk-yz-311"><g transform="translate(0.5,0.5)"><path d="M 985 255 L 975 255" fill="none" stroke="#000000" stroke-miterlimit="10" pointer-events="stroke" style="stroke: rgb(0, 0, 0);"/></g></g><g data-cell-id="4_KN2zwDm9mQIUxYk-yz-312"><g transform="translate(0.5,0.5)"><path d="M 965 255 L 955 255" fill="none" stroke="#000000" stroke-miterlimit="10" pointer-events="stroke" style="stroke: rgb(0, 0, 0);"/></g></g></g><g data-cell-id="4_KN2zwDm9mQIUxYk-yz-314"><g transform="translate(0.5,0.5)"><path d="M 1005 255.05 C 1004.97 252.29 1007.19 250.03 1009.95 250 C 1012.71 249.97 1014.97 252.19 1015 254.95" fill="none" stroke="#000000" stroke-miterlimit="10" transform="rotate(-360,1010,255)" pointer-events="all" style="stroke: rgb(0, 0, 0);"/></g></g><g data-cell-id="4_KN2zwDm9mQIUxYk-yz-316"><g transform="translate(0.5,0.5)"><path d="M 1025 255 L 1015 255" fill="none" stroke="#000000" stroke-miterlimit="10" pointer-events="stroke" style="stroke: rgb(0, 0, 0);"/></g></g><g data-cell-id="4_KN2zwDm9mQIUxYk-yz-317"><g transform="translate(0.5,0.5)"><path d="M 1005 255 L 995 255" fill="none" stroke="#000000" stroke-miterlimit="10" pointer-events="stroke" style="stroke: rgb(0, 0, 0);"/></g></g><g data-cell-id="4_KN2zwDm9mQIUxYk-yz-319"><g transform="translate(0.5,0.5)"><path d="M 875 54.97 L 885 54.97" fill="none" stroke="#000000" stroke-miterlimit="10" pointer-events="stroke" style="stroke: rgb(0, 0, 0);"/></g></g><g data-cell-id="4_KN2zwDm9mQIUxYk-yz-320"><g transform="translate(0.5,0.5)"><path d="M 980 255 L 1025 200" fill="none" stroke="none" pointer-events="stroke"/><path d="M 980 255 C 991.71 239.22 1002.6 230.75 1025 200 M 980 255 C 991.87 237.61 1007.05 218.87 1025 200" fill="none" stroke="#000000" stroke-linejoin="round" stroke-linecap="round" stroke-miterlimit="10" pointer-events="stroke" style="stroke: rgb(0, 0, 0);"/></g></g></g><g data-cell-id="JI5tio_SyQaSidSmy7Pr-3"/><g data-cell-id="JI5tio_SyQaSidSmy7Pr-4"/><g data-cell-id="JI5tio_SyQaSidSmy7Pr-5"/><g data-cell-id="JI5tio_SyQaSidSmy7Pr-6"/><g data-cell-id="JI5tio_SyQaSidSmy7Pr-7"/><g data-cell-id="JI5tio_SyQaSidSmy7Pr-8"/><g data-cell-id="JI5tio_SyQaSidSmy7Pr-9"/><g data-cell-id="JI5tio_SyQaSidSmy7Pr-10"/><g data-cell-id="JI5tio_SyQaSidSmy7Pr-11"/><g data-cell-id="JI5tio_SyQaSidSmy7Pr-13"/><g data-cell-id="JI5tio_SyQaSidSmy7Pr-14"/><g data-cell-id="JI5tio_SyQaSidSmy7Pr-15"/><g data-cell-id="JI5tio_SyQaSidSmy7Pr-16"/><g data-cell-id="JI5tio_SyQaSidSmy7Pr-17"/><g data-cell-id="JI5tio_SyQaSidSmy7Pr-18"/><g data-cell-id="JI5tio_SyQaSidSmy7Pr-19"/><g data-cell-id="JI5tio_SyQaSidSmy7Pr-21"/><g data-cell-id="JI5tio_SyQaSidSmy7Pr-22"/><g data-cell-id="JI5tio_SyQaSidSmy7Pr-23"/><g data-cell-id="JI5tio_SyQaSidSmy7Pr-24"/><g data-cell-id="JI5tio_SyQaSidSmy7Pr-25"/><g data-cell-id="JI5tio_SyQaSidSmy7Pr-26"/><g data-cell-id="JI5tio_SyQaSidSmy7Pr-27"/><g data-cell-id="JI5tio_SyQaSidSmy7Pr-28"/><g data-cell-id="JI5tio_SyQaSidSmy7Pr-32"><g data-cell-id="JI5tio_SyQaSidSmy7Pr-31"/><g data-cell-id="JI5tio_SyQaSidSmy7Pr-29"/></g><g data-cell-id="JI5tio_SyQaSidSmy7Pr-33"><g data-cell-id="JI5tio_SyQaSidSmy7Pr-34"/><g data-cell-id="JI5tio_SyQaSidSmy7Pr-35"/></g><g data-cell-id="JI5tio_SyQaSidSmy7Pr-36"/><g data-cell-id="JI5tio_SyQaSidSmy7Pr-38"/><g data-cell-id="JI5tio_SyQaSidSmy7Pr-39"/><g data-cell-id="JI5tio_SyQaSidSmy7Pr-40"/><g data-cell-id="JI5tio_SyQaSidSmy7Pr-53"><g data-cell-id="JI5tio_SyQaSidSmy7Pr-54"/><g data-cell-id="JI5tio_SyQaSidSmy7Pr-55"/></g><g data-cell-id="JI5tio_SyQaSidSmy7Pr-56"><g data-cell-id="JI5tio_SyQaSidSmy7Pr-57"/><g data-cell-id="JI5tio_SyQaSidSmy7Pr-58"/></g><g data-cell-id="JI5tio_SyQaSidSmy7Pr-59"/><g data-cell-id="JI5tio_SyQaSidSmy7Pr-60"/><g data-cell-id="JI5tio_SyQaSidSmy7Pr-61"/><g data-cell-id="JI5tio_SyQaSidSmy7Pr-62"/><g data-cell-id="4_KN2zwDm9mQIUxYk-yz-211"/><g data-cell-id="qpx0i4PpVs-jwZt5CQnG-7"><g data-cell-id="qpx0i4PpVs-jwZt5CQnG-3"/><g data-cell-id="qpx0i4PpVs-jwZt5CQnG-5"/><g data-cell-id="qpx0i4PpVs-jwZt5CQnG-6"/></g><g data-cell-id="qpx0i4PpVs-jwZt5CQnG-20"><g data-cell-id="qpx0i4PpVs-jwZt5CQnG-21"/><g data-cell-id="qpx0i4PpVs-jwZt5CQnG-22"/><g data-cell-id="qpx0i4PpVs-jwZt5CQnG-23"/></g><g data-cell-id="qpx0i4PpVs-jwZt5CQnG-24"><g data-cell-id="qpx0i4PpVs-jwZt5CQnG-25"/><g data-cell-id="qpx0i4PpVs-jwZt5CQnG-26"/><g data-cell-id="qpx0i4PpVs-jwZt5CQnG-27"/></g><g data-cell-id="qpx0i4PpVs-jwZt5CQnG-28"><g data-cell-id="qpx0i4PpVs-jwZt5CQnG-29"/><g data-cell-id="qpx0i4PpVs-jwZt5CQnG-30"/><g data-cell-id="qpx0i4PpVs-jwZt5CQnG-31"/></g><g data-cell-id="qpx0i4PpVs-jwZt5CQnG-32"><g data-cell-id="qpx0i4PpVs-jwZt5CQnG-33"/><g data-cell-id="qpx0i4PpVs-jwZt5CQnG-34"/><g data-cell-id="qpx0i4PpVs-jwZt5CQnG-35"/></g><g data-cell-id="MXNatQVRSi6pNWBEGQ_w-4"/><g data-cell-id="MXNatQVRSi6pNWBEGQ_w-5"/><g data-cell-id="9fSxxPu7YDap6nbXzRNt-2"><g data-cell-id="9fSxxPu7YDap6nbXzRNt-3"/><g data-cell-id="9fSxxPu7YDap6nbXzRNt-4"/><g data-cell-id="9fSxxPu7YDap6nbXzRNt-5"/></g><g data-cell-id="4_KN2zwDm9mQIUxYk-yz-181"/><g data-cell-id="tvkHFE-2C3Dasiy4wmKv-6"/><g data-cell-id="tvkHFE-2C3Dasiy4wmKv-20"><g transform="translate(0.5,0.5)"><path d="M 0 640 L 80 720" fill="none" stroke="#000000" stroke-miterlimit="10" pointer-events="stroke" style="stroke: rgb(0, 0, 0);"/></g></g><g data-cell-id="tvkHFE-2C3Dasiy4wmKv-21"><g transform="translate(0.5,0.5)"><path d="M 0 620 L 100 720" fill="none" stroke="#000000" stroke-miterlimit="10" pointer-events="stroke" style="stroke: rgb(0, 0, 0);"/></g></g><g data-cell-id="4_KN2zwDm9mQIUxYk-yz-212"/><g data-cell-id="4_KN2zwDm9mQIUxYk-yz-210"/><g data-cell-id="do5e4x9p0j1PCKPhLIFC-2"/></g></g></g></svg>