<?xml version="1.0" encoding="UTF-8"?>
<!DOCTYPE svg PUBLIC "-//W3C//DTD SVG 1.1//EN" "http://www.w3.org/Graphics/SVG/1.1/DTD/svg11.dtd">
<svg xmlns="http://www.w3.org/2000/svg" style="background: transparent; background-color: transparent; color-scheme: light;" xmlns:xlink="http://www.w3.org/1999/xlink" version="1.1" width="1081px" height="722px" viewBox="0 0 1081 722"><defs/><g><g data-cell-id="0"><g data-cell-id="1"><g data-cell-id="NjeQV9hmSFBA9JD2l0-S-1"/><g data-cell-id="NjeQV9hmSFBA9JD2l0-S-2"/><g data-cell-id="NjeQV9hmSFBA9JD2l0-S-3"/><g data-cell-id="NjeQV9hmSFBA9JD2l0-S-4"/><g data-cell-id="NjeQV9hmSFBA9JD2l0-S-10"/><g data-cell-id="NjeQV9hmSFBA9JD2l0-S-12"/><g data-cell-id="2"/><g data-cell-id="Y39Le2Ay8ybuh8c-u--y-6"><g data-cell-id="Y39Le2Ay8ybuh8c-u--y-5"/><g data-cell-id="NjeQV9hmSFBA9JD2l0-S-18"/><g data-cell-id="NjeQV9hmSFBA9JD2l0-S-16"/><g data-cell-id="NjeQV9hmSFBA9JD2l0-S-17"/><g data-cell-id="Y39Le2Ay8ybuh8c-u--y-2"/><g data-cell-id="Y39Le2Ay8ybuh8c-u--y-3"/><g data-cell-id="Y39Le2Ay8ybuh8c-u--y-4"/></g><g data-cell-id="4_KN2zwDm9mQIUxYk-yz-2"/><g data-cell-id="4_KN2zwDm9mQIUxYk-yz-3"><g data-cell-id="4_KN2zwDm9mQIUxYk-yz-4"/><g data-cell-id="4_KN2zwDm9mQIUxYk-yz-5"/><g data-cell-id="4_KN2zwDm9mQIUxYk-yz-6"/><g data-cell-id="4_KN2zwDm9mQIUxYk-yz-7"/><g data-cell-id="4_KN2zwDm9mQIUxYk-yz-8"/><g data-cell-id="4_KN2zwDm9mQIUxYk-yz-9"/><g data-cell-id="4_KN2zwDm9mQIUxYk-yz-10"/></g><g data-cell-id="4_KN2zwDm9mQIUxYk-yz-11"/><g data-cell-id="4_KN2zwDm9mQIUxYk-yz-12"/><g data-cell-id="4_KN2zwDm9mQIUxYk-yz-13"/><g data-cell-id="4_KN2zwDm9mQIUxYk-yz-14"/><g data-cell-id="4_KN2zwDm9mQIUxYk-yz-123"/><g data-cell-id="4_KN2zwDm9mQIUxYk-yz-124"/><g data-cell-id="4_KN2zwDm9mQIUxYk-yz-125"/><g data-cell-id="4_KN2zwDm9mQIUxYk-yz-126"/><g data-cell-id="4_KN2zwDm9mQIUxYk-yz-127"/><g data-cell-id="4_KN2zwDm9mQIUxYk-yz-128"/><g data-cell-id="4_KN2zwDm9mQIUxYk-yz-158"><g data-cell-id="4_KN2zwDm9mQIUxYk-yz-149"/><g data-cell-id="4_KN2zwDm9mQIUxYk-yz-150"/><g data-cell-id="4_KN2zwDm9mQIUxYk-yz-151"/></g><g data-cell-id="4_KN2zwDm9mQIUxYk-yz-159"><g data-cell-id="4_KN2zwDm9mQIUxYk-yz-160"/><g data-cell-id="4_KN2zwDm9mQIUxYk-yz-161"/><g data-cell-id="4_KN2zwDm9mQIUxYk-yz-162"/></g><g data-cell-id="4_KN2zwDm9mQIUxYk-yz-167"><g data-cell-id="4_KN2zwDm9mQIUxYk-yz-168"/><g data-cell-id="4_KN2zwDm9mQIUxYk-yz-169"/><g data-cell-id="4_KN2zwDm9mQIUxYk-yz-170"/></g><g data-cell-id="4_KN2zwDm9mQIUxYk-yz-171"><g data-cell-id="4_KN2zwDm9mQIUxYk-yz-172"/><g data-cell-id="4_KN2zwDm9mQIUxYk-yz-173"/><g data-cell-id="4_KN2zwDm9mQIUxYk-yz-174"/><g data-cell-id="4_KN2zwDm9mQIUxYk-yz-184"/><g data-cell-id="4_KN2zwDm9mQIUxYk-yz-182"/><g data-cell-id="4_KN2zwDm9mQIUxYk-yz-183"/></g><g data-cell-id="4_KN2zwDm9mQIUxYk-yz-175"><g data-cell-id="4_KN2zwDm9mQIUxYk-yz-176"/><g data-cell-id="4_KN2zwDm9mQIUxYk-yz-177"/><g data-cell-id="4_KN2zwDm9mQIUxYk-yz-178"/></g><g data-cell-id="4_KN2zwDm9mQIUxYk-yz-179"><g transform="translate(0.5,0.5)"><rect x="0" y="0" width="1080" height="720" rx="14.4" ry="14.4" fill="#fdfbf8" stroke="#000000" pointer-events="all" style="fill: rgb(253, 251, 248); stroke: rgb(0, 0, 0);"/></g></g><g data-cell-id="4_KN2zwDm9mQIUxYk-yz-180"><g transform="translate(0.5,0.5)"><rect x="40" y="40" width="1000" height="640" fill="#ffffff" stroke="none" pointer-events="all" style="fill: rgb(255, 255, 255);"/></g></g><g data-cell-id="4_KN2zwDm9mQIUxYk-yz-209"><g data-cell-id="4_KN2zwDm9mQIUxYk-yz-186"><g data-cell-id="4_KN2zwDm9mQIUxYk-yz-187"/><g data-cell-id="4_KN2zwDm9mQIUxYk-yz-188"/><g data-cell-id="4_KN2zwDm9mQIUxYk-yz-189"/></g><g data-cell-id="4_KN2zwDm9mQIUxYk-yz-190"><g data-cell-id="4_KN2zwDm9mQIUxYk-yz-191"/><g data-cell-id="4_KN2zwDm9mQIUxYk-yz-192"/><g data-cell-id="4_KN2zwDm9mQIUxYk-yz-193"/></g><g data-cell-id="4_KN2zwDm9mQIUxYk-yz-194"><g data-cell-id="4_KN2zwDm9mQIUxYk-yz-195"/><g data-cell-id="4_KN2zwDm9mQIUxYk-yz-196"/><g data-cell-id="4_KN2zwDm9mQIUxYk-yz-197"/></g><g data-cell-id="4_KN2zwDm9mQIUxYk-yz-198"><g data-cell-id="4_KN2zwDm9mQIUxYk-yz-199"/><g data-cell-id="4_KN2zwDm9mQIUxYk-yz-200"/><g data-cell-id="4_KN2zwDm9mQIUxYk-yz-201"/><g data-cell-id="4_KN2zwDm9mQIUxYk-yz-202"/><g data-cell-id="4_KN2zwDm9mQIUxYk-yz-203"/><g data-cell-id="4_KN2zwDm9mQIUxYk-yz-204"/></g><g data-cell-id="4_KN2zwDm9mQIUxYk-yz-205"><g data-cell-id="4_KN2zwDm9mQIUxYk-yz-206"/><g data-cell-id="4_KN2zwDm9mQIUxYk-yz-207"/><g data-cell-id="4_KN2zwDm9mQIUxYk-yz-208"/></g></g><g data-cell-id="4_KN2zwDm9mQIUxYk-yz-213"/><g data-cell-id="4_KN2zwDm9mQIUxYk-yz-321"><g data-cell-id="4_KN2zwDm9mQIUxYk-yz-15"/><g data-cell-id="4_KN2zwDm9mQIUxYk-yz-106"/><g data-cell-id="4_KN2zwDm9mQIUxYk-yz-118"/><g data-cell-id="4_KN2zwDm9mQIUxYk-yz-119"/><g data-cell-id="4_KN2zwDm9mQIUxYk-yz-120"/><g data-cell-id="4_KN2zwDm9mQIUxYk-yz-121"/><g data-cell-id="4_KN2zwDm9mQIUxYk-yz-217"><g data-cell-id="4_KN2zwDm9mQIUxYk-yz-68"/><g data-cell-id="4_KN2zwDm9mQIUxYk-yz-70"/><g data-cell-id="4_KN2zwDm9mQIUxYk-yz-215"/><g data-cell-id="4_KN2zwDm9mQIUxYk-yz-216"/></g><g data-cell-id="4_KN2zwDm9mQIUxYk-yz-218"><g data-cell-id="4_KN2zwDm9mQIUxYk-yz-219"/><g data-cell-id="4_KN2zwDm9mQIUxYk-yz-220"/><g data-cell-id="4_KN2zwDm9mQIUxYk-yz-221"/><g data-cell-id="4_KN2zwDm9mQIUxYk-yz-222"/></g><g data-cell-id="4_KN2zwDm9mQIUxYk-yz-223"><g data-cell-id="4_KN2zwDm9mQIUxYk-yz-224"/><g data-cell-id="4_KN2zwDm9mQIUxYk-yz-225"/><g data-cell-id="4_KN2zwDm9mQIUxYk-yz-226"/><g data-cell-id="4_KN2zwDm9mQIUxYk-yz-227"/></g><g data-cell-id="4_KN2zwDm9mQIUxYk-yz-228"><g data-cell-id="4_KN2zwDm9mQIUxYk-yz-230"/><g data-cell-id="4_KN2zwDm9mQIUxYk-yz-231"/></g><g data-cell-id="4_KN2zwDm9mQIUxYk-yz-233"><g data-cell-id="4_KN2zwDm9mQIUxYk-yz-234"/><g data-cell-id="4_KN2zwDm9mQIUxYk-yz-235"/><g data-cell-id="4_KN2zwDm9mQIUxYk-yz-236"/><g data-cell-id="4_KN2zwDm9mQIUxYk-yz-237"/><g data-cell-id="4_KN2zwDm9mQIUxYk-yz-272"/></g><g data-cell-id="4_KN2zwDm9mQIUxYk-yz-245"><g data-cell-id="4_KN2zwDm9mQIUxYk-yz-246"/><g data-cell-id="4_KN2zwDm9mQIUxYk-yz-247"/><g data-cell-id="4_KN2zwDm9mQIUxYk-yz-248"/><g data-cell-id="4_KN2zwDm9mQIUxYk-yz-249"/></g><g data-cell-id="4_KN2zwDm9mQIUxYk-yz-250"><g data-cell-id="4_KN2zwDm9mQIUxYk-yz-251"/><g data-cell-id="4_KN2zwDm9mQIUxYk-yz-252"/><g data-cell-id="4_KN2zwDm9mQIUxYk-yz-253"/><g data-cell-id="4_KN2zwDm9mQIUxYk-yz-254"/></g><g data-cell-id="4_KN2zwDm9mQIUxYk-yz-255"><g data-cell-id="4_KN2zwDm9mQIUxYk-yz-256"/><g data-cell-id="4_KN2zwDm9mQIUxYk-yz-257"/><g data-cell-id="4_KN2zwDm9mQIUxYk-yz-258"/><g data-cell-id="4_KN2zwDm9mQIUxYk-yz-259"/></g><g data-cell-id="4_KN2zwDm9mQIUxYk-yz-261"/><g data-cell-id="4_KN2zwDm9mQIUxYk-yz-262"/><g data-cell-id="4_KN2zwDm9mQIUxYk-yz-263"/><g data-cell-id="4_KN2zwDm9mQIUxYk-yz-273"><g data-cell-id="4_KN2zwDm9mQIUxYk-yz-274"/><g data-cell-id="4_KN2zwDm9mQIUxYk-yz-275"/><g data-cell-id="4_KN2zwDm9mQIUxYk-yz-276"/><g data-cell-id="4_KN2zwDm9mQIUxYk-yz-277"/></g><g data-cell-id="4_KN2zwDm9mQIUxYk-yz-278"><g data-cell-id="4_KN2zwDm9mQIUxYk-yz-279"/><g data-cell-id="4_KN2zwDm9mQIUxYk-yz-280"/><g data-cell-id="4_KN2zwDm9mQIUxYk-yz-281"/><g data-cell-id="4_KN2zwDm9mQIUxYk-yz-282"/></g><g data-cell-id="4_KN2zwDm9mQIUxYk-yz-283"><g data-cell-id="4_KN2zwDm9mQIUxYk-yz-284"/><g data-cell-id="4_KN2zwDm9mQIUxYk-yz-285"/><g data-cell-id="4_KN2zwDm9mQIUxYk-yz-286"/><g data-cell-id="4_KN2zwDm9mQIUxYk-yz-287"/></g><g data-cell-id="4_KN2zwDm9mQIUxYk-yz-288"><g data-cell-id="4_KN2zwDm9mQIUxYk-yz-289"/><g data-cell-id="4_KN2zwDm9mQIUxYk-yz-290"/><g data-cell-id="4_KN2zwDm9mQIUxYk-yz-291"/><g data-cell-id="4_KN2zwDm9mQIUxYk-yz-292"/></g><g data-cell-id="4_KN2zwDm9mQIUxYk-yz-293"><g data-cell-id="4_KN2zwDm9mQIUxYk-yz-294"/><g data-cell-id="4_KN2zwDm9mQIUxYk-yz-295"/><g data-cell-id="4_KN2zwDm9mQIUxYk-yz-296"/><g data-cell-id="4_KN2zwDm9mQIUxYk-yz-297"/></g><g data-cell-id="4_KN2zwDm9mQIUxYk-yz-298"><g data-cell-id="4_KN2zwDm9mQIUxYk-yz-299"/><g data-cell-id="4_KN2zwDm9mQIUxYk-yz-300"/><g data-cell-id="4_KN2zwDm9mQIUxYk-yz-301"/><g data-cell-id="4_KN2zwDm9mQIUxYk-yz-302"/></g><g data-cell-id="4_KN2zwDm9mQIUxYk-yz-303"><g data-cell-id="4_KN2zwDm9mQIUxYk-yz-304"/><g data-cell-id="4_KN2zwDm9mQIUxYk-yz-305"/><g data-cell-id="4_KN2zwDm9mQIUxYk-yz-306"/><g data-cell-id="4_KN2zwDm9mQIUxYk-yz-307"/></g><g data-cell-id="4_KN2zwDm9mQIUxYk-yz-308"><g data-cell-id="4_KN2zwDm9mQIUxYk-yz-309"/><g data-cell-id="4_KN2zwDm9mQIUxYk-yz-310"/><g data-cell-id="4_KN2zwDm9mQIUxYk-yz-311"/><g data-cell-id="4_KN2zwDm9mQIUxYk-yz-312"/></g><g data-cell-id="4_KN2zwDm9mQIUxYk-yz-314"/><g data-cell-id="4_KN2zwDm9mQIUxYk-yz-316"/><g data-cell-id="4_KN2zwDm9mQIUxYk-yz-317"/><g data-cell-id="4_KN2zwDm9mQIUxYk-yz-319"/><g data-cell-id="4_KN2zwDm9mQIUxYk-yz-320"/></g><g data-cell-id="JI5tio_SyQaSidSmy7Pr-3"/><g data-cell-id="JI5tio_SyQaSidSmy7Pr-4"/><g data-cell-id="JI5tio_SyQaSidSmy7Pr-5"/><g data-cell-id="JI5tio_SyQaSidSmy7Pr-6"/><g data-cell-id="JI5tio_SyQaSidSmy7Pr-7"/><g data-cell-id="JI5tio_SyQaSidSmy7Pr-8"/><g data-cell-id="JI5tio_SyQaSidSmy7Pr-9"/><g data-cell-id="JI5tio_SyQaSidSmy7Pr-10"/><g data-cell-id="JI5tio_SyQaSidSmy7Pr-11"/><g data-cell-id="JI5tio_SyQaSidSmy7Pr-13"/><g data-cell-id="JI5tio_SyQaSidSmy7Pr-14"/><g data-cell-id="JI5tio_SyQaSidSmy7Pr-15"/><g data-cell-id="JI5tio_SyQaSidSmy7Pr-16"/><g data-cell-id="JI5tio_SyQaSidSmy7Pr-17"/><g data-cell-id="JI5tio_SyQaSidSmy7Pr-18"/><g data-cell-id="JI5tio_SyQaSidSmy7Pr-19"/><g data-cell-id="JI5tio_SyQaSidSmy7Pr-21"/><g data-cell-id="JI5tio_SyQaSidSmy7Pr-22"/><g data-cell-id="JI5tio_SyQaSidSmy7Pr-23"/><g data-cell-id="JI5tio_SyQaSidSmy7Pr-24"/><g data-cell-id="JI5tio_SyQaSidSmy7Pr-25"/><g data-cell-id="JI5tio_SyQaSidSmy7Pr-26"/><g data-cell-id="JI5tio_SyQaSidSmy7Pr-27"/><g data-cell-id="JI5tio_SyQaSidSmy7Pr-28"/><g data-cell-id="JI5tio_SyQaSidSmy7Pr-32"><g data-cell-id="JI5tio_SyQaSidSmy7Pr-31"/><g data-cell-id="JI5tio_SyQaSidSmy7Pr-29"/></g><g data-cell-id="JI5tio_SyQaSidSmy7Pr-33"><g data-cell-id="JI5tio_SyQaSidSmy7Pr-34"/><g data-cell-id="JI5tio_SyQaSidSmy7Pr-35"/></g><g data-cell-id="JI5tio_SyQaSidSmy7Pr-36"/><g data-cell-id="JI5tio_SyQaSidSmy7Pr-38"/><g data-cell-id="JI5tio_SyQaSidSmy7Pr-39"/><g data-cell-id="JI5tio_SyQaSidSmy7Pr-40"/><g data-cell-id="JI5tio_SyQaSidSmy7Pr-53"><g data-cell-id="JI5tio_SyQaSidSmy7Pr-54"/><g data-cell-id="JI5tio_SyQaSidSmy7Pr-55"/></g><g data-cell-id="JI5tio_SyQaSidSmy7Pr-56"><g data-cell-id="JI5tio_SyQaSidSmy7Pr-57"/><g data-cell-id="JI5tio_SyQaSidSmy7Pr-58"/></g><g data-cell-id="JI5tio_SyQaSidSmy7Pr-59"/><g data-cell-id="JI5tio_SyQaSidSmy7Pr-60"/><g data-cell-id="JI5tio_SyQaSidSmy7Pr-61"/><g data-cell-id="JI5tio_SyQaSidSmy7Pr-62"/><g data-cell-id="4_KN2zwDm9mQIUxYk-yz-211"/><g data-cell-id="qpx0i4PpVs-jwZt5CQnG-7"><g data-cell-id="qpx0i4PpVs-jwZt5CQnG-3"/><g data-cell-id="qpx0i4PpVs-jwZt5CQnG-5"/><g data-cell-id="qpx0i4PpVs-jwZt5CQnG-6"/></g><g data-cell-id="qpx0i4PpVs-jwZt5CQnG-20"><g transform="translate(0.5,0.5)"/><g data-cell-id="qpx0i4PpVs-jwZt5CQnG-21"><g transform="translate(0.5,0.5)"><rect x="55" y="55" width="100" height="100" fill="none" stroke="none" pointer-events="all"/><path d="M 55 55 L 155 55 M 155 155 M 55 155 L 55 55" fill="none" stroke="none" pointer-events="all"/><path d="M 55 55 C 76 50.97 102.02 57.56 155 55 M 55 55 C 82.86 56.5 112.7 54.34 155 55 M 55 155 C 52.9 122.07 60.09 95.98 55 55 M 55 155 C 54.69 130.15 52.09 110.75 55 55" fill="none" stroke="#cccccc" stroke-linejoin="round" stroke-linecap="square" stroke-miterlimit="10" pointer-events="all" style="stroke: rgb(204, 204, 204);"/></g></g><g data-cell-id="qpx0i4PpVs-jwZt5CQnG-22"><g transform="translate(0.5,0.5)"><path d="M 25 185 L 25 52 L 45 25 L 45 185 Z" fill="none" stroke="none" transform="rotate(-180,35,105)" pointer-events="all"/><path d="M 25 185 C 25.05 151.53 22.79 118.54 25 52 C 31.25 38.45 32.99 36.62 45 25 C 42.37 65.74 41.55 107.55 45 185 C 38.21 180.98 38.27 187.71 25 185" fill="#ffffff" stroke="none" transform="rotate(-180,35,105)" pointer-events="all" style="fill: rgb(255, 255, 255);"/><path d="M 25 185 C 24.68 155.25 23.48 121.17 25 52 M 25 185 C 21.48 136.04 22.28 89.25 25 52 M 25 52 C 27.41 44.52 39.08 36.92 45 25 M 25 52 C 27.82 48.32 31.11 41.91 45 25 M 45 25 C 42.8 70.8 45.07 114.1 45 185 M 45 25 C 44.85 60.02 44.62 93.15 45 185 M 45 185 C 41.75 183.92 32.26 188.48 25 185 M 45 185 C 35.93 183.7 27.54 184.78 25 185" fill="none" stroke="#cccccc" stroke-linejoin="round" stroke-linecap="round" stroke-miterlimit="10" transform="rotate(-180,35,105)" pointer-events="all" style="stroke: rgb(204, 204, 204);"/></g></g><g data-cell-id="qpx0i4PpVs-jwZt5CQnG-23"><g transform="translate(0.5,0.5)"><path d="M 95 115 L 95 -18 L 115 -45 L 115 115 Z" fill="none" stroke="none" transform="translate(105,0)scale(-1,1)translate(-105,0)rotate(-90,105,35)" pointer-events="all"/><path d="M 95 115 C 91.94 65.29 91.96 27.11 95 -18 C 104.14 -18.63 104.26 -23.82 115 -45 C 114.99 15.6 117.15 67.27 115 115 C 115.75 111.15 110.98 119.83 95 115" fill="#ffffff" stroke="none" transform="translate(105,0)scale(-1,1)translate(-105,0)rotate(-90,105,35)" pointer-events="all" style="fill: rgb(255, 255, 255);"/><path d="M 95 115 C 91.94 83.18 88.38 49.49 95 -18 M 95 115 C 93.51 83.5 93.46 56.16 95 -18 M 95 -18 C 105.77 -29.86 107.86 -41.07 115 -45 M 95 -18 C 103.69 -27.09 108.28 -38.67 115 -45 M 115 -45 C 111.25 -11.09 109.47 29.04 115 115 M 115 -45 C 117.48 -3.16 119.31 38.3 115 115 M 115 115 C 109.98 113.94 102.74 114.12 95 115 M 115 115 C 108.17 113.6 101.08 114.36 95 115" fill="none" stroke="#cccccc" stroke-linejoin="round" stroke-linecap="round" stroke-miterlimit="10" transform="translate(105,0)scale(-1,1)translate(-105,0)rotate(-90,105,35)" pointer-events="all" style="stroke: rgb(204, 204, 204);"/></g></g></g><g data-cell-id="qpx0i4PpVs-jwZt5CQnG-24"><g transform="translate(0.5,0.5)"/><g data-cell-id="qpx0i4PpVs-jwZt5CQnG-25"><g transform="translate(0.5,0.5)"><rect x="55" y="575" width="100" height="100" fill="none" stroke="none" transform="rotate(-90,105,625)" pointer-events="all"/><path d="M 55 575 L 155 575 M 155 675 M 55 675 L 55 575" fill="none" stroke="none" transform="rotate(-90,105,625)" pointer-events="all"/><path d="M 55 575 C 82.86 573.06 107.47 573.25 155 575 M 55 575 C 93.23 573.38 128.47 572.97 155 575 M 55 675 C 55.8 649.4 53.87 626.59 55 575 M 55 675 C 55.12 642.18 55.69 606.92 55 575" fill="none" stroke="#cccccc" stroke-linejoin="round" stroke-linecap="square" stroke-miterlimit="10" transform="rotate(-90,105,625)" pointer-events="all" style="stroke: rgb(204, 204, 204);"/></g></g><g data-cell-id="qpx0i4PpVs-jwZt5CQnG-26"><g transform="translate(0.5,0.5)"><path d="M 95 775 L 95 642 L 115 615 L 115 775 Z" fill="none" stroke="none" transform="rotate(-270,105,695)" pointer-events="all"/><path d="M 95 775 C 97.57 725.58 93.24 676 95 642 C 98.41 633.49 112.85 629.82 115 615 C 120.62 648.75 120.51 677.23 115 775 C 111.99 771.67 99.89 774.99 95 775" fill="#ffffff" stroke="none" transform="rotate(-270,105,695)" pointer-events="all" style="fill: rgb(255, 255, 255);"/><path d="M 95 775 C 97.05 744.96 94.43 712.47 95 642 M 95 775 C 96.93 742.65 98.34 712.5 95 642 M 95 642 C 101.75 637.6 103.12 628.94 115 615 M 95 642 C 102.37 633.68 106.86 626.78 115 615 M 115 615 C 120.99 661.22 115.07 715.87 115 775 M 115 615 C 116.59 677.32 116.56 735.73 115 775 M 115 775 C 108.67 773.19 104.18 776.23 95 775 M 115 775 C 106.87 773.3 99.68 773.1 95 775" fill="none" stroke="#cccccc" stroke-linejoin="round" stroke-linecap="round" stroke-miterlimit="10" transform="rotate(-270,105,695)" pointer-events="all" style="stroke: rgb(204, 204, 204);"/></g></g><g data-cell-id="qpx0i4PpVs-jwZt5CQnG-27"><g transform="translate(0.5,0.5)"><path d="M 25 705 L 25 572 L 45 545 L 45 705 Z" fill="none" stroke="none" transform="translate(35,0)scale(-1,1)translate(-35,0)" pointer-events="all"/><path d="M 25 705 C 28.22 677.14 26.17 637.76 25 572 C 31.31 565.21 32.92 558.18 45 545 C 42.04 587.4 44.91 636.95 45 705 C 38.33 700.73 32.6 705.99 25 705" fill="#ffffff" stroke="none" transform="translate(35,0)scale(-1,1)translate(-35,0)" pointer-events="all" style="fill: rgb(255, 255, 255);"/><path d="M 25 705 C 24.31 672.89 27.34 640.79 25 572 M 25 705 C 24.97 663.5 25.52 622.22 25 572 M 25 572 C 32.11 563.22 39.9 558.95 45 545 M 25 572 C 30.24 563.67 36.03 557 45 545 M 45 545 C 49.43 587.32 47.47 630.82 45 705 M 45 545 C 46.83 582.15 44.84 616.88 45 705 M 45 705 C 36.9 703.21 34.65 701.86 25 705 M 45 705 C 39.1 703.2 29.22 706.68 25 705" fill="none" stroke="#cccccc" stroke-linejoin="round" stroke-linecap="round" stroke-miterlimit="10" transform="translate(35,0)scale(-1,1)translate(-35,0)" pointer-events="all" style="stroke: rgb(204, 204, 204);"/></g></g></g><g data-cell-id="qpx0i4PpVs-jwZt5CQnG-28"><g transform="translate(0.5,0.5)"/><g data-cell-id="qpx0i4PpVs-jwZt5CQnG-29"><g transform="translate(0.5,0.5)"><rect x="925" y="575" width="100" height="100" fill="none" stroke="none" transform="rotate(-180,975,625)" pointer-events="all"/><path d="M 925 575 L 1025 575 M 1025 675 M 925 675 L 925 575" fill="none" stroke="none" transform="rotate(-180,975,625)" pointer-events="all"/><path d="M 925 575 C 951.72 571.15 974.91 572.93 1025 575 M 925 575 C 949.59 574.26 978.24 571.6 1025 575 M 925 675 C 924.7 636.73 929.66 597.2 925 575 M 925 675 C 925.54 650.22 925.29 627.09 925 575" fill="none" stroke="#cccccc" stroke-linejoin="round" stroke-linecap="square" stroke-miterlimit="10" transform="rotate(-180,975,625)" pointer-events="all" style="stroke: rgb(204, 204, 204);"/></g></g><g data-cell-id="qpx0i4PpVs-jwZt5CQnG-30"><g transform="translate(0.5,0.5)"><path d="M 1035 705 L 1035 572 L 1055 545 L 1055 705 Z" fill="none" stroke="none" transform="rotate(-360,1045,625)" pointer-events="all"/><path d="M 1035 705 C 1027.32 672.4 1035.24 635.68 1035 572 C 1038.01 556.49 1052.56 555.38 1055 545 C 1050.05 598.26 1045.98 654.22 1055 705 C 1045.42 700.41 1041.92 707.63 1035 705" fill="#ffffff" stroke="none" transform="rotate(-360,1045,625)" pointer-events="all" style="fill: rgb(255, 255, 255);"/><path d="M 1035 705 C 1035.24 671.14 1037.77 640.59 1035 572 M 1035 705 C 1033.09 671.35 1033.27 642.13 1035 572 M 1035 572 C 1040.9 562.13 1050.86 556.68 1055 545 M 1035 572 C 1039.21 564.8 1048.2 555.44 1055 545 M 1055 545 C 1052.53 597.8 1057.48 653.45 1055 705 M 1055 545 C 1053.71 577.95 1052.85 608.37 1055 705 M 1055 705 C 1048.44 702.89 1048.13 708.32 1035 705 M 1055 705 C 1046.69 703.19 1040.07 703.04 1035 705" fill="none" stroke="#cccccc" stroke-linejoin="round" stroke-linecap="round" stroke-miterlimit="10" transform="rotate(-360,1045,625)" pointer-events="all" style="stroke: rgb(204, 204, 204);"/></g></g><g data-cell-id="qpx0i4PpVs-jwZt5CQnG-31"><g transform="translate(0.5,0.5)"><path d="M 965 775 L 965 642 L 985 615 L 985 775 Z" fill="none" stroke="none" transform="translate(975,0)scale(-1,1)translate(-975,0)rotate(90,975,695)" pointer-events="all"/><path d="M 965 775 C 965.41 726.16 964.42 684.25 965 642 C 970.9 639.41 972.63 623.74 985 615 C 991.63 656.11 990.54 689.94 985 775 C 978.96 770.58 966.63 779.75 965 775" fill="#ffffff" stroke="none" transform="translate(975,0)scale(-1,1)translate(-975,0)rotate(90,975,695)" pointer-events="all" style="fill: rgb(255, 255, 255);"/><path d="M 965 775 C 962.5 739.06 962.68 708.92 965 642 M 965 775 C 965.12 732.2 964.46 691.84 965 642 M 965 642 C 970.17 627.75 978.56 618.69 985 615 M 965 642 C 971.08 634.78 977.37 629.66 985 615 M 985 615 C 988.98 663.9 981.88 716.4 985 775 M 985 615 C 986.35 654.78 987.54 693.52 985 775 M 985 775 C 980.67 772.11 970.61 773.16 965 775 M 985 775 C 978.93 773.09 969.61 776.62 965 775" fill="none" stroke="#cccccc" stroke-linejoin="round" stroke-linecap="round" stroke-miterlimit="10" transform="translate(975,0)scale(-1,1)translate(-975,0)rotate(90,975,695)" pointer-events="all" style="stroke: rgb(204, 204, 204);"/></g></g></g><g data-cell-id="qpx0i4PpVs-jwZt5CQnG-32"><g transform="translate(0.5,0.5)"/><g data-cell-id="qpx0i4PpVs-jwZt5CQnG-33"><g transform="translate(0.5,0.5)"><rect x="925" y="55" width="100" height="100" fill="none" stroke="none" transform="rotate(90,975,105)" pointer-events="all"/><path d="M 925 55 L 1025 55 M 1025 155 M 925 155 L 925 55" fill="none" stroke="none" transform="rotate(90,975,105)" pointer-events="all"/><path d="M 925 55 C 950.6 55.21 970.95 50.96 1025 55 M 925 55 C 949.39 54.78 976.8 53.03 1025 55 M 925 155 C 922.84 125.54 926.83 103.49 925 55 M 925 155 C 926.2 132.43 922.81 112.15 925 55" fill="none" stroke="#cccccc" stroke-linejoin="round" stroke-linecap="square" stroke-miterlimit="10" transform="rotate(90,975,105)" pointer-events="all" style="stroke: rgb(204, 204, 204);"/></g></g><g data-cell-id="qpx0i4PpVs-jwZt5CQnG-34"><g transform="translate(0.5,0.5)"><path d="M 965 115 L 965 -18 L 985 -45 L 985 115 Z" fill="none" stroke="none" transform="rotate(-90,975,35)" pointer-events="all"/><path d="M 965 115 C 971.04 66.45 965.69 13.14 965 -18 C 976.38 -28.47 981.22 -42.62 985 -45 C 988.3 1.27 984.95 55.1 985 115 C 979.2 111.1 974.74 114.91 965 115" fill="#ffffff" stroke="none" transform="rotate(-90,975,35)" pointer-events="all" style="fill: rgb(255, 255, 255);"/><path d="M 965 115 C 962.29 80.85 963.4 51.9 965 -18 M 965 115 C 968.54 71.36 969.33 28.18 965 -18 M 965 -18 C 974.15 -24.79 973.82 -31.3 985 -45 M 965 -18 C 972.68 -29.85 978.87 -39.68 985 -45 M 985 -45 C 984.31 16.21 981.09 83.23 985 115 M 985 -45 C 985.46 15.25 984.79 70.95 985 115 M 985 115 C 979.36 112.17 972.04 116.06 965 115 M 985 115 C 977.62 116.79 968.22 115.37 965 115" fill="none" stroke="#cccccc" stroke-linejoin="round" stroke-linecap="round" stroke-miterlimit="10" transform="rotate(-90,975,35)" pointer-events="all" style="stroke: rgb(204, 204, 204);"/></g></g><g data-cell-id="qpx0i4PpVs-jwZt5CQnG-35"><g transform="translate(0.5,0.5)"><path d="M 1035 185 L 1035 52 L 1055 25 L 1055 185 Z" fill="none" stroke="none" transform="translate(1045,0)scale(-1,1)translate(-1045,0)rotate(-180,1045,105)" pointer-events="all"/><path d="M 1035 185 C 1030.49 146.81 1038.62 114.9 1035 52 C 1038.07 43.25 1052.49 36.94 1055 25 C 1049.72 91.12 1049.35 143.62 1055 185 C 1045.54 181.28 1047.45 187.03 1035 185" fill="#ffffff" stroke="none" transform="translate(1045,0)scale(-1,1)translate(-1045,0)rotate(-180,1045,105)" pointer-events="all" style="fill: rgb(255, 255, 255);"/><path d="M 1035 185 C 1029.55 148.77 1036.31 120.22 1035 52 M 1035 185 C 1036.58 158.81 1036.51 131.09 1035 52 M 1035 52 C 1044.51 40.84 1050.59 30.71 1055 25 M 1035 52 C 1040.55 44.14 1048.04 30.54 1055 25 M 1055 25 C 1052.76 82.32 1053.49 138.17 1055 185 M 1055 25 C 1051.69 56.08 1053.07 92.1 1055 185 M 1055 185 C 1047.6 182.19 1042.52 181.7 1035 185 M 1055 185 C 1049.86 186.69 1041.75 184.95 1035 185" fill="none" stroke="#cccccc" stroke-linejoin="round" stroke-linecap="round" stroke-miterlimit="10" transform="translate(1045,0)scale(-1,1)translate(-1045,0)rotate(-180,1045,105)" pointer-events="all" style="stroke: rgb(204, 204, 204);"/></g></g></g><g data-cell-id="MXNatQVRSi6pNWBEGQ_w-4"/><g data-cell-id="MXNatQVRSi6pNWBEGQ_w-5"/><g data-cell-id="9fSxxPu7YDap6nbXzRNt-2"><g data-cell-id="9fSxxPu7YDap6nbXzRNt-3"/><g data-cell-id="9fSxxPu7YDap6nbXzRNt-4"/><g data-cell-id="9fSxxPu7YDap6nbXzRNt-5"/></g><g data-cell-id="4_KN2zwDm9mQIUxYk-yz-181"/><g data-cell-id="tvkHFE-2C3Dasiy4wmKv-6"/><g data-cell-id="tvkHFE-2C3Dasiy4wmKv-13"/><g data-cell-id="tvkHFE-2C3Dasiy4wmKv-14"/><g data-cell-id="tvkHFE-2C3Dasiy4wmKv-15"/><g data-cell-id="tvkHFE-2C3Dasiy4wmKv-16"/><g data-cell-id="tvkHFE-2C3Dasiy4wmKv-17"/><g data-cell-id="tvkHFE-2C3Dasiy4wmKv-18"/><g data-cell-id="tvkHFE-2C3Dasiy4wmKv-20"/><g data-cell-id="tvkHFE-2C3Dasiy4wmKv-21"/><g data-cell-id="4_KN2zwDm9mQIUxYk-yz-212"/><g data-cell-id="4_KN2zwDm9mQIUxYk-yz-210"/><g data-cell-id="do5e4x9p0j1PCKPhLIFC-2"/></g></g></g></svg>